<?xml version="1.0" encoding="UTF-8" standalone="no"?>
<svg width="699px" height="285px" viewBox="0 0 699 285" version="1.1" xmlns="http://www.w3.org/2000/svg" xmlns:xlink="http://www.w3.org/1999/xlink" xmlns:sketch="http://www.bohemiancoding.com/sketch/ns">
    <title>Slice 1</title>
    <description>Created with Sketch (http://www.bohemiancoding.com/sketch)</description>
    <defs></defs>
    <g id="Page-1" stroke="none" stroke-width="1" fill="none" fill-rule="evenodd" sketch:type="MSPage">
        <g id="dg-i_logo" sketch:type="MSLayerGroup" fill="#FFFFFF">
            <path d="M87.91949,224.07069 L67.44799,224.07069 L67.44799,65.9185 L94.35015,65.9185 C114.8216,65.9185 140.6043,65.5433 158.7834,89.9285 C170.9184,106.708 172.8042,125.3705 172.8042,144.0397 C172.8042,221.41036 123.538,223.30677 87.91949,224.07069 L87.91949,224.07069 Z M352.3497,179.8704 L412.2182,179.8704 C410.3323,193.96944 408.0666,208.45048 390.6138,219.88251 C379.6317,227.11968 365.9907,230.16867 353.869,230.16867 C333.4042,230.16867 315.2051,221.78562 304.9827,210.74224 C292.0947,197.39369 283.7448,172.6265 283.7448,142.1299 C283.7448,97.1724 303.0702,54.8752 353.869,54.8752 C390.9936,54.8752 406.5405,78.4964 416.0099,92.9775 L466.7888,62.1123 C454.2807,45.7282 419.8083,0 348.9378,0 C293.3409,0 248.7594,30.7513 228.6677,80.9423 C222.5436,65.7845 213.6006,52.0138 201.2324,40.7694 C167.1199,10.2928 117.8537,9.5222 85.26059,9.147 L0.002656642,9.147 L0.002656642,278.181907 L105.3656,278.181907 C131.8079,277.820044 199.7464,276.41282 228.0213,206.48035 C245.754,253.11317 284.258,284.286586 337.5692,284.286586 C382.6571,284.286586 405.401,263.33231 416.3965,253.02605 L416.3965,278.181907 L468.688,278.181907 L468.688,128.8082 L352.3497,128.8082 L352.3497,179.8704 Z" id="Fill-3" sketch:type="MSShapeGroup"></path>
            <path d="M516.7388,132.1875 L612.8389,132.1875 L612.8389,89.22018 L516.7388,89.22018 L516.7388,132.1875 Z" id="Fill-4" sketch:type="MSShapeGroup"></path>
            <path d="M654.4483,194.97661 L698.35007,194.97661 L698.35007,71.77061 L654.4483,71.77061 L654.4483,194.97661 Z" id="Fill-5" sketch:type="MSShapeGroup"></path>
            <path d="M654.4483,46.0049 L698.35007,46.0049 L698.35007,10.47578 L654.4483,10.47578 L654.4483,46.0049 Z" id="Fill-6" sketch:type="MSShapeGroup"></path>
        </g>
    </g>
</svg>